<svg id="visual" viewBox="0 0 900 600" width="900" height="600" xmlns="http://www.w3.org/2000/svg" xmlns:xlink="http://www.w3.org/1999/xlink" version="1.1"><rect x="0" y="0" width="900" height="600" fill="#00182D"></rect><defs><linearGradient id="grad1_0" x1="33.3%" y1="0%" x2="100%" y2="100%"><stop offset="20%" stop-color="#00182d" stop-opacity="1"></stop><stop offset="80%" stop-color="#00182d" stop-opacity="1"></stop></linearGradient></defs><defs><linearGradient id="grad2_0" x1="0%" y1="0%" x2="66.7%" y2="100%"><stop offset="20%" stop-color="#00182d" stop-opacity="1"></stop><stop offset="80%" stop-color="#00182d" stop-opacity="1"></stop></linearGradient></defs><g transform="translate(900, 0)"><path d="M0 432.7C-47.6 407.8 -95.3 382.9 -151.9 366.8C-208.6 350.6 -274.2 343.3 -305.9 305.9C-337.7 268.6 -335.6 201.4 -351.1 145.4C-366.6 89.4 -399.6 44.7 -432.7 0L0 0Z" fill="#86A7CC"></path></g><g transform="translate(0, 600)"><path d="M0 -432.7C45.4 -398.2 90.9 -363.7 143.5 -346.5C196.1 -329.2 255.9 -329.1 301.9 -301.9C348 -274.7 380.2 -220.4 399.7 -165.6C419.2 -110.7 425.9 -55.4 432.7 0L0 0Z" fill="#86A7CC"></path></g></svg>